<svg xmlns="http://www.w3.org/2000/svg" width="289" height="650" viewBox="0 0 289 650">
  <g id="Group_4" data-name="Group 4" transform="translate(-862 -124)">
    <g id="Polygon_1" data-name="Polygon 1" transform="translate(862 124)" fill="#fff">
      <path d="M 204.1467437744141 288.5 L 84.85317993164063 288.5 L 0.5000000596046448 204.1467437744141 L 0.5000356435775757 84.85317993164063 L 84.85324859619141 0.5000000596046448 L 204.1467437744141 0.5000356435775757 L 288.5 84.85321807861328 L 288.4999389648438 204.1467437744141 L 204.1467437744141 288.5 Z" stroke="none"/>
      <path d="M 85.0604248046875 1 L 1.000030517578125 85.06034851074219 L 1 203.9395751953125 L 85.06034851074219 288 L 203.9395751953125 288 L 287.9999084472656 203.9396057128906 L 288 85.06037902832031 L 203.9395751953125 1.000030517578125 L 85.0604248046875 1 M 84.64619445800781 0 L 204.3538055419922 3.0517578125e-05 L 289 84.64614868164063 L 288.9999084472656 204.3538513183594 L 204.3538055419922 289 L 84.6461181640625 289 L 0 204.3538055419922 L 3.0517578125e-05 84.6461181640625 L 84.64619445800781 0 Z" stroke="none" fill="#000"/>
    </g>
    <g id="Polygon_2" data-name="Polygon 2" transform="translate(875 139)" fill="rgba(243,61,61,0.97)">
      <path d="M 183.6405944824219 259.5 L 76.35936737060547 259.5 L 0.5000000596046448 183.6405944824219 L 0.5000332593917847 76.35933685302734 L 76.35943603515625 0.5000000596046448 L 183.6405944824219 0.5000332593917847 L 259.5 76.35936737060547 L 259.4999389648438 183.6405944824219 L 183.6405944824219 259.5 Z" stroke="none"/>
      <path d="M 76.56646728515625 1 L 1.000030517578125 76.56643676757813 L 1 183.4335021972656 L 76.56643676757813 259 L 183.4335327148438 259 L 258.9999389648438 183.4335327148438 L 259 76.56646728515625 L 183.4335327148438 1.000030517578125 L 76.56646728515625 1 M 76.15226745605469 0 L 183.8477325439453 3.0517578125e-05 L 260 76.15226745605469 L 259.9999389648438 183.8477325439453 L 183.8477325439453 260 L 76.15223693847656 260 L 0 183.8477020263672 L 3.0517578125e-05 76.15223693847656 L 76.15226745605469 0 Z" stroke="none" fill="#000"/>
    </g>
    <text id="STOP" transform="translate(901 298)" fill="#fff" font-size="81" font-family="Poppins-Bold, Poppins" font-weight="700"><tspan x="0" y="0">STOP</tspan></text>
    <g id="Rectangle_1" data-name="Rectangle 1" transform="translate(1001 412)" fill="#e2e2e2" stroke="#060606" stroke-width="1">
      <rect width="18" height="362" stroke="none"/>
      <rect x="0.5" y="0.5" width="17" height="361" fill="none"/>
    </g>
  </g>
</svg>
