<svg xmlns="http://www.w3.org/2000/svg" width="653.507" height="599.091" viewBox="0 0 653.507 599.091">
  <g id="Svg" transform="translate(-1024.246 -349)">
    <g id="Ellipse_19" data-name="Ellipse 19" transform="matrix(1, -0.017, 0.017, 1, 1084.574, 780.142)" fill="#00abae" stroke="#707070" stroke-width="1">
      <ellipse cx="264.5" cy="83.987" rx="264.5" ry="83.987" stroke="none"/>
      <ellipse cx="264.5" cy="83.987" rx="264" ry="83.487" fill="none"/>
    </g>
    <g id="Svg_Design" data-name="Svg Design" transform="translate(1007.844 349)">
      <circle id="Ellipse_1" data-name="Ellipse 1" cx="25.375" cy="25.375" r="25.375" transform="translate(117.086 36.948)" fill="#2f2e41"/>
      <path id="Path_1" data-name="Path 1" d="M235.615,568.566,251.2,514.5l5.307,1.659s-6.3,40.467-16.253,50.75Z" transform="translate(-170.44 -200.749)" fill="#2f2e41"/>
      <path id="Path_2" data-name="Path 2" d="M307.223,225.277s1.99,21.229-2.654,27.2,2.985,17.58,2.985,17.58l13.931,16.585,20.565-9.288,2.985-17.248-1.99-11.941s-6.966-6.966-3.98-19.57S307.223,225.277,307.223,225.277Z" transform="translate(-182.674 -147.695)" fill="#ffb9b9"/>
      <path id="Path_3" data-name="Path 3" d="M307.223,225.277s1.99,21.229-2.654,27.2,2.985,17.58,2.985,17.58l13.931,16.585,20.565-9.288,2.985-17.248-1.99-11.941s-6.966-6.966-3.98-19.57S307.223,225.277,307.223,225.277Z" transform="translate(-182.674 -147.695)" opacity="0.1"/>
      <path id="Path_4" data-name="Path 4" d="M166.73,578.6v13.6l18.243,3.649-1.659-22.555Z" transform="translate(-30.24 -103.978)" fill="#ffb9b9"/>
      <path id="Path_5" data-name="Path 5" d="M232.7,572.854l-3.981,18.906,7.961,5.639,13.931-10.282-1.659-16.254Z" transform="translate(-41.483 -103.537)" fill="#ffb9b9"/>
      <path id="Path_6" data-name="Path 6" d="M339.979,728.546s-6.966-11.774-19.9-4.394c0,0-2.322,13.018-4.644,14.014s-15.258,19.9,0,21.56,22.887-3.317,22.887-3.317-2.985,2.569,1.659,1.242,2.654-8.624,2.654-8.624Z" transform="translate(-183.587 -238.332)" fill="#2f2e41"/>
      <path id="Path_7" data-name="Path 7" d="M397.772,719.779s-10.283,7.3-11.941,3.98-4.312-2.985-4.312-2.985-9.287,35.011-3.317,36.67a20.125,20.125,0,0,0,11.61-.6s7.961-5.575,7.961-1.263,22.224,4,31.511,3.67,4.312-7.3,4.312-7.3l-12.273-11.941-13.931-20.234S401.089,714.14,397.772,719.779Z" transform="translate(-195.937 -237.526)" fill="#2f2e41"/>
      <path id="Path_8" data-name="Path 8" d="M283.022,448.33,296.953,582s7.629,81.6,8.956,82.925,9.951,5.639,28.858,0l-4.312-106.807,7.961-66.34,18.243,45.774s4.312,123.06,7.3,123.06,21.229,5.971,25.541-1.327,3.649-85.91,3.649-85.91-1.99-124.055-16.585-128.036S283.022,448.33,283.022,448.33Z" transform="translate(-179.038 -187.984)" fill="#2f2e41"/>
      <circle id="Ellipse_2" data-name="Ellipse 2" cx="22.887" cy="22.887" r="22.887" transform="translate(119.573 44.08)" fill="#ffb9b9"/>
      <path id="Path_9" data-name="Path 9" d="M318.118,283.605s-2.322-14.263-2.322-16.917-10.283-4.312-10.283-4.312-7.961-8.956-9.619-7.629-26.868,18.243-30.848,20.565-8.292,12.273-7.961,12.936,20.9,43.784,20.9,43.784,8.956,26.536,2.654,40.467-14.263,41.462-2.654,47.1,68,17.912,78.281,7.3,17.58-13.6,20.234-13.6-10.946-46.106-7.961-50.418-1.327-31.18-1.327-31.18l15.258-42.789s-1.327-23.882-31.511-29.189L332.9,250.968Z" transform="translate(-174.331 -152.952)" fill="#00abae"/>
      <path id="Path_10" data-name="Path 10" d="M254.917,456.411s-1.659,15.921-1.659,20.565-7.961,31.843,3.649,35.16,10.614-36.155,10.614-36.155V455.747Z" transform="translate(-173.157 -190.093)" fill="#ffb9b9"/>
      <path id="Path_11" data-name="Path 11" d="M420.773,438.324s1.99,15.258,1,18.575,9.619,32.175-4.644,33.833-10.614-34.5-10.614-34.5V438.324Z" transform="translate(-201.359 -186.933)" fill="#ffb9b9"/>
      <path id="Path_12" data-name="Path 12" d="M252.227,562.745l9.619-51.081h2.985a20.091,20.091,0,0,1,2.985,19.238c-3.98,11.278-7.3,31.843-7.3,31.843Z" transform="translate(-173.453 -200.235)" fill="#2f2e41"/>
      <path id="Path_13" data-name="Path 13" d="M260.5,291.647l-4.975,3.98s-6.634,105.48-4.975,113.441-5.971,19.238.663,20.234,14.595,5.307,18.243,2.654,4.312-12.273,5.639-14.595,3.649-29.853,3.649-29.853,6.966-27.531,2.654-48.1-8.292-41.462-8.292-41.462Z" transform="translate(-172.768 -160.33)" fill="#00abae"/>
      <path id="Path_14" data-name="Path 14" d="M390.288,281.517l15.258,12.936,11.609,67.666s7.3,52.74,1.659,53.4-14.263-1-17.912,0-6.634-1.658-6.634-1.658-3.98-21.229-3.98-21.56-2.654-24.545-2.654-24.545l-3.317-27.2,4.975-29.853Z" transform="translate(-197.41 -158.493)" fill="#00abae"/>
      <path id="Path_15" data-name="Path 15" d="M280.534,646.817s-2.156,6.193-5.128,14.625c-1.38,3.921-2.936,8.329-4.538,12.823-1.032,2.906-2.08,5.848-3.111,8.72-1.645,4.594-3.244,9.006-4.64,12.794-1.844,5-3.34,8.916-4.143,10.744-3.649,8.292-70.32-4.975-75.627-8.292s-6.634-14.595-7.3-30.516c0-.083-.007-.166-.007-.249-.086-3.214.733-8,2.1-13.616.683-2.806,1.506-5.818,2.421-8.946,1.227-4.2,2.62-8.594,4.077-12.973,6.256-18.807,13.629-37.19,13.629-37.19s12.936-8.956,17.58-14.926S246.038,569.2,246.038,569.2c7.3.332,23.882,28.526,30.516,37.15S280.534,646.817,280.534,646.817Z" transform="translate(-159.634 -210.67)" fill="#3f3d56"/>
      <circle id="Ellipse_3" data-name="Ellipse 3" cx="2.985" cy="2.985" r="2.985" transform="translate(80.765 379.758)" fill="#2f2e41"/>
      <circle id="Ellipse_4" data-name="Ellipse 4" cx="1.658" cy="1.658" r="1.658" transform="translate(86.736 384.402)" fill="#2f2e41"/>
      <path id="Path_16" data-name="Path 16" d="M276.41,675.34c-1.38,3.921-2.936,8.329-4.538,12.823l-90.3-29.362c1.227-4.2,2.62-8.594,4.077-12.973Z" transform="translate(-160.638 -224.568)" fill="#f2f2f2"/>
      <path id="Path_17" data-name="Path 17" d="M267.757,701.739c-1.645,4.594-3.244,9.006-4.64,12.794l-87.074-28.313c-.086-3.214.733-8,2.1-13.616Z" transform="translate(-159.634 -229.424)" fill="#f2f2f2"/>
      <path id="Path_18" data-name="Path 18" d="M258.3,599.588s6.634,29.189,2.654,55.062,9.951,50.086,9.951,50.086" transform="translate(-174.555 -216.181)" fill="none" stroke="#2f2e41" stroke-miterlimit="10" stroke-width="3"/>
      <path id="Path_19" data-name="Path 19" d="M258.319,602.425s-12.936,47.1-13.268,53.735-5.639,54.067-12.273,59.042" transform="translate(-169.925 -216.696)" fill="none" stroke="#2f2e41" stroke-miterlimit="10" stroke-width="3"/>
      <path id="Path_20" data-name="Path 20" d="M308.173,191.3s-5.181-13.47,2.331-17.873l2.072,5.958s18.909-11.4,23.831-8.807l-4.663,6.217s22.018,0,23.572,8.548l-7.771.259s8.289,5.44,8.548,14.247l-16.578,1.036,8.03,4.663s-30.048,4.145-37.3-7.771Z" transform="translate(-183.284 -138.303)" fill="#2f2e41"/>
      <path id="Path_21" data-name="Path 21" d="M303.078,194.941s5.971,11.941,13.931,8.956,0-13.931,0-13.931l-5.307-2.654Z" transform="translate(-182.675 -141.407)" fill="#2f2e41"/>
      <path id="Path_22" data-name="Path 22" d="M842.515,373.154,734.251,237.864a36.35,36.35,0,0,1-17.509,8.841c-20.382,4.014-40.287-9.9-44.459-31.088a39.267,39.267,0,0,1,13.555-38.25l-36.915-46.13L438.615,310.978,632.206,552.895Z" transform="translate(-207.258 -131.237)" fill="#059597"/>
      <circle id="Ellipse_5" data-name="Ellipse 5" cx="30.522" cy="30.522" r="30.522" transform="translate(470.214 47.997)" fill="#f2f2f2"/>
      <rect id="Rectangle_5" data-name="Rectangle 5" width="14.283" height="41.581" transform="translate(300.419 225.324) rotate(-49.171)" fill="#0d586b"/>
      <path id="Path_110" data-name="Path 110" d="M0,0H14.283V36.857H0Z" transform="translate(502.671 418.602) rotate(-49.171)" fill="#0d586b"/>
      <path id="Path_23" data-name="Path 23" d="M780.975,500.034v.838q-.029,3.157-.181,6.285a139.978,139.978,0,0,1-279.49,1.828q-.286-4.442-.286-8.951a139.284,139.284,0,0,1,25.739-80.911q2.014-2.857,4.19-5.609c1-1.276,2.028-2.523,3.066-3.761a140,140,0,0,1,195.074-18.511c1.685,1.362,3.342,2.771,4.961,4.209q1.943,1.728,3.818,3.533a139.6,139.6,0,0,1,42.622,89.281Q780.975,494.092,780.975,500.034Z" transform="translate(-218.576 -172.737)" fill="#3f3d56"/>
      <path id="Path_24" data-name="Path 24" d="M637.095,664.9C550.2,664.9,479.5,594.2,479.5,507.3a157.079,157.079,0,0,1,42.05-107.171l3.49,3.239A152.33,152.33,0,0,0,484.261,507.3c0,84.272,68.561,152.833,152.833,152.833A151.624,151.624,0,0,0,746.812,613.7l3.418,3.314A156.348,156.348,0,0,1,637.095,664.9Z" transform="translate(-214.673 -180.006)" fill="#0d586b"/>
      <rect id="Rectangle_7" data-name="Rectangle 7" width="39.994" height="39.994" transform="translate(405.281 481.559)" fill="#0d586b"/>
      <path id="Path_25" data-name="Path 25" d="M530.948,424.526a.776.776,0,0,1,.19.114c.752.619-.19,1.809-.076,2.79.133,1.257,1.809,1.533,3.076,1.657s2.866,1.152,2.266,2.276c-3.18,1.1-6.4.019-9.646-1.228a139.284,139.284,0,0,0-25.739,80.911q0,4.514.286,8.951a3.62,3.62,0,0,0,.867.467c.952.362,2.057.3,2.933.809.7.409,1.162,1.133,1.857,1.514,1.99,1.086,4.752-1,6.609.3a17.058,17.058,0,0,1,1.362,1.39c1.714,1.485,4.533.486,6.513,1.6,1.276.714,1.933,2.143,2.619,3.438,1.7,3.238,4.466,6.418,8.113,6.675a21.852,21.852,0,0,1,3.447.114c1.124.257,2.228,1.238,2.047,2.371-.314,1.952.648,4.085.391,6.037-.467,3.571-5.523,5.133-5.951,8.7a21.51,21.51,0,0,1-.133,2.352c-.229.933-.933,1.695-1.181,2.628-.476,1.762.79,3.523,2.171,4.7s3.047,2.219,3.809,3.875c.8,1.762.409,3.809.667,5.723.571,4.18,4.18,7.275,7.894,9.275a8.242,8.242,0,0,1,3.085,2.247c.952,1.381.857,3.2,1.181,4.847.781,4.028,4.171,7.351,4.266,11.455.067,2.923-1.552,5.571-2.523,8.323a19.206,19.206,0,0,0-.867,8.989,140.641,140.641,0,0,0,17.264,12.522,5.031,5.031,0,0,0,.714-1.6,3.164,3.164,0,0,0-1.476-3.276,7.828,7.828,0,0,0,2.733-1.752,2.681,2.681,0,0,0,.5-3.028c1.676.21,3.666.314,4.771-.971a4.26,4.26,0,0,0,.476-3.876,15.987,15.987,0,0,1-.952-3.942,70.916,70.916,0,0,0,11.636-.39,7.554,7.554,0,0,0-3.542-4.437c1.752-.3,3.342-2.39,3.895-4.076a10.382,10.382,0,0,0,.076-5.266,2.8,2.8,0,0,1-.057-1.371,2.7,2.7,0,0,1,1.39-1.343q4.342-2.5,8.684-4.99a5.236,5.236,0,0,0,1.39-1.019,4.145,4.145,0,0,0,.3-4.009,20.193,20.193,0,0,1-1.39-3.961c-.533-4.161,3.923-7.151,5.428-11.074a16.631,16.631,0,0,0,.819-4.847c.124-1.771.133-3.818-1.219-4.952-1.3-1.1-3.333-.847-4.694-1.866-1.247-.933-1.676-2.733-3.038-3.485-1.238-.686-2.781-.248-4.161-.571-2.419-.562-3.942-3.352-6.418-3.609-1.39-.152-2.971.533-4.114-.276-1.009-.724-1.047-2.162-1.238-3.38a9.443,9.443,0,0,0-7.618-7.637c-1.438-.229-3-.143-4.228-.933s-1.8-2.295-2.781-3.409c-1.562-1.781-4.038-2.419-6.351-2.961q-4.714-1.1-9.418-2.209c-1.666-.4-3.818-.609-4.723.857a6.44,6.44,0,0,0-.552,1.762,5.463,5.463,0,0,1-5.123,3.847,6.054,6.054,0,0,0-3.561-2.761,22.48,22.48,0,0,1-2.895-.686,4.056,4.056,0,0,1-1.752-5.628,5.053,5.053,0,0,0-.867-6.066,8.2,8.2,0,0,0-6.066-1.647c-.562-1.228.381-2.609,1.39-3.5s2.247-1.762,2.466-3.095c.352-2.095-2.323-3.685-4.352-3.066s-3.323,2.6-4.18,4.542a13.7,13.7,0,0,1-1.685,3.228,3.309,3.309,0,0,1-3.2,1.314c-1.676-.428-2.314-2.419-2.685-4.095a26.7,26.7,0,0,1-.9-6.866,8.962,8.962,0,0,1,2.59-6.247c2.771-2.552,7.037-2.3,10.779-1.895a2.746,2.746,0,0,1,.286-3.618,4.114,4.114,0,0,1,3.733-.914,5.12,5.12,0,0,1,2.885,1.724c1.067,1.295,1.371,3.057,2.171,4.523s2.619,2.733,4.095,1.943c1.286-.686,1.485-2.457,1.171-3.876s-1-2.79-.886-4.237c.219-2.752,3.085-4.418,5.609-5.552s5.409-2.666,5.809-5.409a5.054,5.054,0,0,1,.3-1.562,3.053,3.053,0,0,1,1.133-1.066c7.361-4.866,14.855-9.8,23.273-12.455.438-.143.486.01.933-.1.628-.362.21-1.362-.39-1.762s-1.4-.714-1.552-1.419c-.1-.514.2-1.028.276-1.552a1.938,1.938,0,0,0-2.542-1.962c-.676-.9.657-1.933,1.743-2.238a47.6,47.6,0,0,1,9.951-1.619,1.772,1.772,0,0,1,1.133.19,1.347,1.347,0,0,1,.086,1.847,10.435,10.435,0,0,1-1.514,1.381,4.159,4.159,0,0,0-1.086,4.18c1.762.9,3.666,1.819,5.618,1.5s3.666-2.5,2.752-4.247c-.848-1.628-3.409-2-3.847-3.78-.514-2.085,2.438-3.942,1.771-5.98-.286-.9-1.181-1.428-1.866-2.066a5.634,5.634,0,0,1-1.228-6.228,7.1,7.1,0,0,1-6.209-1.943c-1.485-1.495-2.666-3.866-4.78-3.79-1.933.057-3.6,2.314-5.409,1.628-.448-.171-.914-.514-1.343-.314a1.11,1.11,0,0,0-.5.828c-.457,2.2.333,4.7-.867,6.608-1.3,2.066-4.323,2.352-5.9,4.218-.857,1.009-1.19,2.371-1.981,3.438s-2.457,1.752-3.409.819a4.693,4.693,0,0,0-1.276-5.713,12.266,12.266,0,0,0-2.819-1.371,16.727,16.727,0,0,1-3.152-1.752,3.122,3.122,0,0,1-1.152-1.238,2.846,2.846,0,0,1,.076-1.962,8.018,8.018,0,0,1,6.37-5.275c1.257-.171,2.723-.114,3.561-1.076.438-.5.667-1.276,1.314-1.476a1.915,1.915,0,0,1,1.209.143c1.571.552,3.133,1.1,4.7,1.657a3.222,3.222,0,0,0,1.676.276,1.127,1.127,0,0,0,.981-1.19c-.152-.781-1.352-1.152-1.238-1.943a1.236,1.236,0,0,1,.39-.667,16.826,16.826,0,0,1,13.341-5.266c.59.981-.343,2.133-1.133,2.961s-1.409,2.323-.457,2.961a2.508,2.508,0,0,0,1.247.286,10.88,10.88,0,0,1,3.333,1.009c1.628.7,3.228,1.485,4.79,2.323a6.039,6.039,0,0,1,.114-3.085,2.1,2.1,0,0,1,2.476-1.343c.933.362,1.409,1.6,2.409,1.714,1.324.152,1.847-1.809,1.3-3.028s-1.657-2.228-1.743-3.571c-.067-.9.276-2.009-.438-2.552a1.894,1.894,0,0,0-.847-.3q-8.97-1.643-17.95-3.295c-1.066-.2-2.6-.048-2.647,1.028-.029.609.514,1.209.276,1.762-.257.59-1.1.543-1.7.752a2.314,2.314,0,0,0-1.333,2.447,6.672,6.672,0,0,0,1.124,2.752c-1.171-.486-2.933-.571-4.1-1.066a15.8,15.8,0,0,0-1.029-3.952,1.395,1.395,0,0,0-1.819-1.124c-1.543.238-3.085.467-4.628.7a1.791,1.791,0,0,0-1.057.409c-.6.638-.009,1.657-.029,2.533a2.374,2.374,0,0,1-1.838,2.047,6.926,6.926,0,0,1-2.933-.038l-6.475-1a10.608,10.608,0,0,0,4.895-3.276c.857-1.009,1.314-2.895.076-3.371a2.955,2.955,0,0,0-1.124-.086c-2.933.019-5.247-2.428-7.989-3.466a7.853,7.853,0,0,0-2.695-.5Z" transform="translate(-218.576 -183.748)" fill="#00abae"/>
      <path id="Path_26" data-name="Path 26" d="M802.52,513.871a3.438,3.438,0,0,1-2.914,1.381c-2.981-.257-4.237-4.552-7.189-5.037a1.15,1.15,0,0,0-.781.076c-.438.238-.514.828-.543,1.324-.124,2.457-.229,5.009.733,7.275,1.4,3.314,5.028,6.094,4.266,9.608C792,526.6,789.865,522,788.9,517.594s-1.124-9.037-2.857-13.207c-1.324,1.685-4.085.3-5.285-1.476-1.143-1.676-1.847-3.618-2.952-5.323s-2.8-3.219-4.818-3.314c-2.123-.1-3.971,1.362-5.59,2.742a12.938,12.938,0,0,0-3.476,3.866c-1.133,2.285-.838,4.971-.9,7.513-.057,2.742-.638,5.647-2.514,7.666s-5.332,2.714-7.4.9a8.346,8.346,0,0,1-2.066-3.723,181.137,181.137,0,0,1-5.6-19.978c-.343,1.543-1.7,3.533-3,2.628a2.673,2.673,0,0,1-.686-.9c-2.419-4.085-6.885-6.542-11.408-8.018s-9.265-2.152-13.731-3.771a35.114,35.114,0,0,1-7.132-3.552,5.616,5.616,0,0,0-.343,5.732,4.592,4.592,0,0,0,5.161,2.162c.99-.324,1.828-1.009,2.809-1.352s2.3-.171,2.733.781c.419.9-.21,2,.1,2.952.467,1.438,2.647,1.552,3.409,2.866a2.653,2.653,0,0,1-.714,3.066,12.833,12.833,0,0,1-2.876,1.771c-3.2,1.781-5.475,4.818-8.275,7.18s-6.751,4.095-10.084,2.581c.79-4.028-4-6.98-4.885-10.989-.3-1.324-.143-2.723-.552-4.009-.6-1.866-2.257-3.142-3.609-4.552a17.891,17.891,0,0,1-4.9-13,18.034,18.034,0,0,0,0-4.961c-.371-1.609-1.714-3.171-3.371-3.1-3.78.171-8.551.457-10.532-2.771-.714-1.152-1.019-2.838.01-3.723a3.6,3.6,0,0,1,2.733-.467c2.847.276,5.685.562,8.532.838,1.99.19,4.142.352,5.856-.686s2.457-3.809.867-5.037c-1.152-.9-3.228-.847-3.571-2.266-.276-1.19,1.038-2.533.324-3.533-.5-.7-1.647-.514-2.342.019a15.3,15.3,0,0,1-1.971,1.724c-1.362.7-2.981.029-4.447-.429s-3.428-.5-4.133.867c-.8,1.514.7,3.514-.086,5.037-1.047,2.009-4.571.867-6.037,2.6-1.676,1.981,1.143,4.952.581,7.484a4.666,4.666,0,0,1-4.6-.257,4.453,4.453,0,0,1-1.923-4.152c.133-1.143.733-2.314.333-3.39a3.958,3.958,0,0,0-2.009-1.838q-4.142-2.3-8.284-4.58c-.771,1.428.2,3.19,1.419,4.266s2.733,1.876,3.533,3.285a4.318,4.318,0,0,1-1.619,5.694,1,1,0,0,1-.828.143,1.148,1.148,0,0,1-.533-.714c-1.457-3.742-3.657-7.427-7.161-9.379s-8.551-1.552-10.856,1.733c-.543.781-.914,1.676-1.39,2.5-2.523,4.39-7.951,6.466-13.017,6.332a2.508,2.508,0,0,1-1.419-.333c-.819-.562-.781-1.762-.657-2.752.181-1.4.352-2.79.533-4.19a3.356,3.356,0,0,1,.924-2.295c.943-.743,2.295-.276,3.495-.3a4.4,4.4,0,0,0,4.009-3.095,4.975,4.975,0,0,0-1.39-4.952c-.543-.514-1.276-1.162-.99-1.857a1.543,1.543,0,0,1,1.076-.724c2.143-.619,4.418-.781,6.523-1.524s4.161-2.238,4.666-4.418c.152-.667.219-1.476.819-1.809a2.653,2.653,0,0,1,.952-.19,4.635,4.635,0,0,0,3.971-4.828c1.009-.7,2.428-.181,3.409.571a9.472,9.472,0,0,0,3.028,2.066c2.219.609,4.361-1.362,6.666-1.371.971,0,1.971.343,2.876.01.924-.333,1.476-1.247,2.181-1.924s1.952-1.1,2.609-.362c-.19-1.381-.371-2.752-.562-4.123a8.105,8.105,0,0,0,6.6-1.2c-2.4-.809-4.79-1.619-7.189-2.428a1.551,1.551,0,0,1-.676-.362c-.524-.562,0-1.438.419-2.076,1.019-1.533,1.19-4.056-.486-4.818-1.143-.524-2.447.1-3.542.714-1.752.971-3.5,1.952-5.256,2.923-.162,1,1.057,1.571,1.809,2.238a3.034,3.034,0,0,1-1.981,5.3,3.8,3.8,0,0,1,.676,3.209l-3.533.257a1.517,1.517,0,0,1-1.143-.229c-.381-.333-.324-.924-.419-1.419a3.065,3.065,0,0,0-2.59-2.257,8.941,8.941,0,0,0-3.609.333,2.2,2.2,0,0,1-1.562-.038,1.558,1.558,0,0,1-.609-.781,3.982,3.982,0,0,1,.8-3.828,21.922,21.922,0,0,1,3.009-2.771,17.541,17.541,0,0,0,5.228-8.094c1.943-.819,3.952-1.923,5.9-2.742a23.583,23.583,0,0,1,4.9-1.647,23.174,23.174,0,0,1,4.809-.229c2.19.038,4.39.076,6.58.124a15.835,15.835,0,0,1,5.761.828,5.374,5.374,0,0,1,3.514,4.295,1.319,1.319,0,0,1-.428,1.209,1.543,1.543,0,0,1-.828.19c-1.819.057-2.59.514-4.409.581,1.152,1.228,2.447,2.523,4.123,2.742,2.952.381,5.075-2.676,6.437-5.332a2.6,2.6,0,0,0,2.714,2.409,5.474,5.474,0,0,0,2.047-.8,40.274,40.274,0,0,1,19.092-4.932,2.056,2.056,0,0,1,1.571-2.266c1.362-.267,2.581.9,3.238,2.123s1.057,2.628,2.1,3.542,3.047.867,3.457-.448c.4-1.266-.924-2.352-2.019-3.1s-2.257-2.123-1.514-3.228a97.91,97.91,0,0,1,16.988-2.733,7.227,7.227,0,0,0,2.857-.5,2.22,2.22,0,0,0,1.333-2.352,6.492,6.492,0,0,1-6.761-2.552c5.894-.486,12.065-.914,17.731.409l4.961,4.209c-.943.981-2.2,1.9-1.514,2.885a2.11,2.11,0,0,0,1.742.6c1.2.019,2.4.048,3.59.048a139.6,139.6,0,0,1,42.622,89.282c-2-.076-3.837,2.457-3.58,4.666.3,2.562,2.152,4.618,3.476,6.828a10.4,10.4,0,0,1,.59,1.114Z" transform="translate(-240.301 -179.451)" fill="#00abae"/>
      <circle id="Ellipse_6" data-name="Ellipse 6" cx="12.079" cy="12.079" r="12.079" transform="translate(287.828 41.352)" fill="none" stroke="#3f3d56" stroke-miterlimit="10" stroke-width="2"/>
      <circle id="Ellipse_7" data-name="Ellipse 7" cx="12.079" cy="12.079" r="12.079" transform="translate(644.751 271.388)" fill="none" stroke="#3f3d56" stroke-miterlimit="10" stroke-width="2"/>
      <circle id="Ellipse_8" data-name="Ellipse 8" cx="12.079" cy="12.079" r="12.079" transform="translate(562.288 151.049)" fill="none" stroke="#3f3d56" stroke-miterlimit="10" stroke-width="2"/>
      <circle id="Ellipse_9" data-name="Ellipse 9" cx="13.556" cy="13.556" r="13.556" transform="translate(481.559 251.616)" fill="#3f3d56"/>
      <circle id="Ellipse_10" data-name="Ellipse 10" cx="17.869" cy="17.869" r="17.869" transform="translate(520.789 203.732)" fill="#fff"/>
      <path id="Path_27" data-name="Path 27" d="M822.919,377.715a25.263,25.263,0,0,0-35.724.442c-9.743,9.987-23.653,60.424-23.653,60.424s50.077-15.155,59.82-25.142A25.263,25.263,0,0,0,822.919,377.715Zm-26.246,26.9a11.707,11.707,0,1,1,16.555-.205,11.707,11.707,0,0,1-16.555.205Z" transform="translate(-266.189 -174.638)" fill="#57b894"/>
    </g>
  </g>
</svg>
